<mxfile host="app.diagrams.net" modified="2024-07-02T22:24:27.483Z" agent="Mozilla/5.0 (Windows NT 10.0; Win64; x64) AppleWebKit/537.36 (KHTML, like Gecko) Chrome/126.0.0.0 Safari/537.36" version="24.3.1" etag="XUTS_rsjP9DMr34wujPW" type="github">
  <diagram name="Page-1" id="kfa9qtkE60QhQVfD0FI7">
    <mxGraphModel>
      <root>
        <mxCell id="0" />
        <mxCell id="1" parent="0" />
      </root>
    </mxGraphModel>
  </diagram>
</mxfile>
